<?xml version="1.0" encoding="UTF-8" standalone="no"?>
<!-- Created with Inkscape (http://www.inkscape.org/) -->
<svg
   xmlns:svg="http://www.w3.org/2000/svg"
   xmlns="http://www.w3.org/2000/svg"
   version="1.0"
   width="192"
   height="192"
   id="svg2811">
  <defs
     id="defs2813" />
  <g
     transform="translate(-149,-431.3622)"
     id="layer1">
    <path
       d="M 155,617.3622 L 155,437.3622 L 175,437.3622 L 175,617.3622 L 195,617.3622 L 195,437.3622 L 215,437.3622 L 215,617.3622 L 235,617.3622 L 235,437.3622 L 255,437.3622 L 255,617.3622 L 275,617.3622 L 275,437.3622 L 295,437.3622 L 295,617.3622 L 315,617.3622 L 315,437.3622 L 335,437.3622 L 335,617.3622 L 155,617.3622 z "
       style="fill:none;fill-rule:evenodd;stroke:black;stroke-width:1;stroke-linecap:butt;stroke-linejoin:miter;stroke-miterlimit:4;stroke-dasharray:none;stroke-opacity:1"
       id="path2819" />
    <path
       d="M 155,437.3622 L 335,437.3622 L 335,457.3622 L 155,457.3622 L 155,477.3622 L 335,477.3622 L 335,497.3622 L 155,497.3622 L 155,517.3622 L 335,517.3622 L 335,537.3622 L 155,537.3622 L 155,557.3622 L 335,557.3622 L 335,577.3622 L 155,577.3622 L 155,597.3622 L 335,597.3622 L 335,617.3622 L 155,617.3622 L 155,437.3622 z "
       style="fill:none;fill-rule:evenodd;stroke:black;stroke-width:1;stroke-linecap:butt;stroke-linejoin:miter;stroke-miterlimit:4;stroke-dasharray:none;stroke-opacity:1"
       id="path2822" />
    <path
       d="M 155,437.3622 L 155,497.3622 L 275,497.3622 L 275,437.3622 L 215,437.3622 L 215,617.3622 L 275,617.3622 L 275,557.3622 L 155,557.3622 L 155,617.3622 L 335,617.3622 L 335,557.3622 L 275,557.3622 L 275,497.3622 L 275,437.3622 L 335,437.3622 L 335,557.3622 L 155,557.3622 L 155,497.3622 L 335,497.3622 L 335,437.3622 L 155,437.3622 z "
       style="fill:none;fill-rule:evenodd;stroke:black;stroke-width:2;stroke-linecap:butt;stroke-linejoin:miter;stroke-miterlimit:4;stroke-dasharray:none;stroke-opacity:1"
       id="path3709" />
  </g>
</svg>
